<svg id="Outlined" xmlns="http://www.w3.org/2000/svg" viewBox="0 0 100 100" width="45" height="45"><defs><style>.cls-1{fill:#3575d3}</style></defs><title>Icons-03-OUTLINED</title><path class="cls-1" d="M82.5 48.5h-65v16.25h65V48.5zm-3 13.25h-59V51.5h59v10.25zM25.6 30.41h48.79v3H25.6zM25.6 79.43h48.79v3H25.6zM25.6 70.76h48.79v3H25.6z"/><path class="cls-1" d="M88 6H12a6 6 0 0 0-6 6v75.89a6 6 0 0 0 6 6h76a6 6 0 0 0 6-6V12a6 6 0 0 0-6-6zm-66.49 6h65.74v4.2H21.51V12zM12 12h4.24v4.2H12V12zm79 75.89a3 3 0 0 1-3 3H12a3 3 0 0 1-3-3v-66h82v66z"/><path class="cls-1" d="M25.6 39.08h48.79v3H25.6z"/></svg>

