<svg id="Outlined" xmlns="http://www.w3.org/2000/svg" viewBox="0 0 100 100" width="45" height="45"><defs><style>.cls-1,.cls-2{fill:#3575d3}.cls-2{opacity:.5}</style></defs><title>Icons-03-OUTLINED</title><path class="cls-1" d="M31.69 31.62h10.23v10.23H31.69zM44.88 31.62h10.23v10.23H44.88zM58.08 31.62h10.23v10.23H58.08zM31.69 44.85h10.23v10.23H31.69zM44.88 44.85h10.23v10.23H44.88zM58.08 44.85h10.23v10.23H58.08zM31.69 58.08h10.23v10.23H31.69zM44.88 58.08h10.23v10.23H44.88z"/><path class="cls-2" d="M58.08 58.08h10.23v10.23H58.08z"/><path class="cls-1" d="M50 9A41 41 0 1 1 9 50 41 41 0 0 1 50 9m0-3a44 44 0 1 0 44 44A44 44 0 0 0 50 6z"/></svg>

