<svg id="Outlined" xmlns="http://www.w3.org/2000/svg" viewBox="0 0 100 100" width="45" height="45"><defs><style>.cls-1{fill:#3575d3}</style></defs><title>Icons-02-OUTLINED</title><path class="cls-1" d="M87.92 65.8a5.69 5.69 0 0 0-.85-.55 1.83 1.83 0 0 0-.83-.25 1.69 1.69 0 0 0-1.14.61 13.73 13.73 0 0 0-2.94 4.61 1.21 1.21 0 0 0 0 1.32l2.34 2.34a21.71 21.71 0 0 1-10.69 10.67l-2.31-2.31a.79.79 0 0 0-.59-.24 1.87 1.87 0 0 0-.73.17 16.11 16.11 0 0 0-4.63 3.1 1.24 1.24 0 0 0-.36 1.82 9.22 9.22 0 0 0 .53.88 6.48 6.48 0 0 0 5.55 3 6.22 6.22 0 0 0 1.54-.17 27.2 27.2 0 0 0 18-18 6.85 6.85 0 0 0-2.89-7z"/><path class="cls-1" d="M50 6.15A43.85 43.85 0 1 0 63.59 91.7a11.59 11.59 0 0 1-1.19-1.46c-.25-.37-.47-.74-.67-1.1a40.59 40.59 0 0 1-9.54 1.66h-.09q-1 .05-2.1.05h-2.62c-.52 0-1-.07-1.54-.12h-.28a40.76 40.76 0 0 1-24.68-12c5.31-2.12 14-5.35 18.54-6.7h.05c2.64-.83 2.64-3.11 2.64-5.11A14.57 14.57 0 0 0 41 60.54a22.06 22.06 0 0 1-1.69-5.78l-.12-.89-.59-.68c-.53-.61-1.52-2.16-2.21-5.57-.57-2.84-.3-3.54 0-4.19a6 6 0 0 0 .22-.63v-.16c.39-1.5-.04-6.34-.61-9.36a12.16 12.16 0 0 1 2.57-8.44c1.54-2 4.52-4.39 10-4.75h3.5c5.54.37 8.54 2.79 10.08 4.76a12.15 12.15 0 0 1 2.56 8.44c-.49 2.71-1 7.71-.63 9.36v.18a6.54 6.54 0 0 0 .22.64c.24.62.51 1.32-.06 4.16-.68 3.42-1.68 5-2.21 5.57l-.59.68-.12.89a22 22 0 0 1-1.69 5.78A14.67 14.67 0 0 0 58 66.72c0 2 0 4.28 2.73 5.14 3.87 1.14 11 3.69 16.25 5.76a17.64 17.64 0 0 0 2.09-2.4c-5.32-2.14-13-4.88-17.17-6.14 2.54-.94 5.18-1.88 6.89-2.38h.05c2.43-.77 2.43-2.94 2.43-4.25a10 10 0 0 0-.78-4.34 12.44 12.44 0 0 1-.94-3.21l-.11-.9-.59-.68a6.49 6.49 0 0 1-1.1-2.9 3.14 3.14 0 0 1-.08-1.93 5 5 0 0 0 .17-.49v-.16a24.12 24.12 0 0 0-.38-6.19 6.41 6.41 0 0 1 1.35-4.27 7 7 0 0 1 5.26-2.48h2.07a7 7 0 0 1 5.33 2.48 6.4 6.4 0 0 1 1.35 4.27 24.11 24.11 0 0 0-.38 6.2v.18a5.13 5.13 0 0 0 .17.5 3.16 3.16 0 0 1-.09 1.91 6.5 6.5 0 0 1-1.1 2.9l-.5.66-.12.89a12.44 12.44 0 0 1-.94 3.21 10.07 10.07 0 0 0-1.14 4.29 4.43 4.43 0 0 0 1.13 3.51 15.35 15.35 0 0 1 1.9-2.58v-.93a7.38 7.38 0 0 1 .86-3 15.4 15.4 0 0 0 1.2-4.09 9.2 9.2 0 0 0 1.74-4.3c.42-2.1.22-2.87-.05-3.58 0-.08-.06-.15-.08-.22a23.41 23.41 0 0 1 .4-5 9.23 9.23 0 0 0-1.94-6.66 9.94 9.94 0 0 0-7.59-3.63H74a10.35 10.35 0 0 0-6.45 2.49l.09-.54A15 15 0 0 0 64.5 23c-1.93-2.46-5.62-5.49-12.35-5.91h-3.69c-6.62.42-10.31 3.44-12.24 5.91a15 15 0 0 0-3.15 10.83c0 .24.09.49.13.74a10.31 10.31 0 0 0-6.72-2.69H24.2a9.89 9.89 0 0 0-7.52 3.63 9.23 9.23 0 0 0-1.94 6.65 23.54 23.54 0 0 1 .4 5 2.34 2.34 0 0 1-.08.23c-.28.72-.47 1.48-.05 3.58a9.2 9.2 0 0 0 1.77 4.27A15.4 15.4 0 0 0 18 59.37a7.27 7.27 0 0 1 .49 3.06c0 1.28 0 1.29-.34 1.38a40.57 40.57 0 0 0-5.59 2.47 40.86 40.86 0 1 1 76.54-4.47 9.78 9.78 0 0 1 1.26.82 13.1 13.1 0 0 1 1.28 1.13A43.85 43.85 0 0 0 50 6.15zm16.58 49.13a15.39 15.39 0 0 0 1.2 4.09 7.27 7.27 0 0 1 .49 3.06c0 1.28 0 1.29-.34 1.38-1.71.5-4.34 1.43-6.9 2.38a13.08 13.08 0 0 1 1.37-4.39 25 25 0 0 0 1.95-6.66 9.28 9.28 0 0 0 1.16-1.75 6.62 6.62 0 0 0 1.07 1.89zm-32.58 0a6.82 6.82 0 0 0 1.15-2.06 9.58 9.58 0 0 0 1.25 1.94 25 25 0 0 0 1.95 6.66 10.8 10.8 0 0 1 .79 4.3c-2.56-.94-5.19-1.85-6.84-2.34-.31-.1-.36-.11-.36-1.39a7.38 7.38 0 0 1 .86-3 15.39 15.39 0 0 0 1.2-4.11zM15.22 68.33A25.35 25.35 0 0 1 19 66.7c2.43-.77 2.43-2.94 2.43-4.25a10 10 0 0 0-.78-4.34 12.45 12.45 0 0 1-.94-3.21l-.08-.9-.63-.68a6.5 6.5 0 0 1-1.1-2.9 3.14 3.14 0 0 1-.08-1.93A5 5 0 0 0 18 48v-.16a24.11 24.11 0 0 0-.38-6.19A6.41 6.41 0 0 1 19 37.36a7 7 0 0 1 5.26-2.48h2.07a7 7 0 0 1 5.33 2.48 6.4 6.4 0 0 1 1.35 4.27 24.12 24.12 0 0 0-.38 6.2v.18a5.09 5.09 0 0 0 .17.5 3.16 3.16 0 0 1-.09 1.91 6.5 6.5 0 0 1-1.1 2.9l-.5.68-.11.88a12.44 12.44 0 0 1-.94 3.21 10.07 10.07 0 0 0-1.14 4.29c0 1.3 0 3.48 2.51 4.27 1.78.53 4.51 1.48 7.06 2.43-4.93 1.47-14.46 5-19.74 7.17A41.57 41.57 0 0 1 15 71.12c-.25-.41-.48-.82-.71-1.23l-.29-.53-.15-.36z"/></svg>

